<svg width="27" height="25" viewBox="0 0 27 25" fill="none" xmlns="http://www.w3.org/2000/svg">
<path d="M5 -3.39933e-08C6.00729 -4.08415e-08 6.88867 0.213499 7.64414 0.640496C8.3996 1.06749 8.97946 1.65978 9.3837 2.41736C9.79457 3.17493 10 4.03581 10 5C10 5.96419 9.79457 6.82507 9.3837 7.58264C8.97946 8.34022 8.3996 8.93251 7.64414 9.3595C6.88867 9.7865 6.00729 10 5 10C3.99271 10 3.11133 9.7865 2.35586 9.3595C1.6004 8.93251 1.01723 8.34022 0.606362 7.58264C0.202121 6.82507 4.05484e-08 5.96419 3.39933e-08 5C2.74381e-08 4.03581 0.202121 3.17493 0.606362 2.41736C1.01723 1.65978 1.6004 1.06749 2.35586 0.640496C3.11133 0.213499 3.99271 -2.7145e-08 5 -3.39933e-08ZM5 2.34504C4.52286 2.34504 4.10868 2.45523 3.75746 2.67562C3.40623 2.88912 3.13453 3.19559 2.94235 3.59504C2.75679 3.99449 2.66402 4.46281 2.66402 5C2.66402 5.53719 2.75679 6.00551 2.94235 6.40496C3.13453 6.80441 3.40623 7.11433 3.75746 7.33471C4.10868 7.54821 4.52286 7.65496 5 7.65496C5.47714 7.65496 5.89132 7.54821 6.24254 7.33471C6.59377 7.11433 6.86216 6.80441 7.04771 6.40496C7.23989 6.00551 7.33598 5.53719 7.33598 5C7.33598 4.46281 7.23989 3.99449 7.04771 3.59504C6.86216 3.19559 6.59377 2.88912 6.24254 2.67562C5.89132 2.45523 5.47714 2.34504 5 2.34504Z" fill="#E61613"/>
<path d="M11.5 4C13.0109 4 14.333 4.32025 15.4662 4.96074C16.5994 5.60124 17.4692 6.48967 18.0755 7.62603C18.6918 8.7624 19 10.0537 19 11.5C19 12.9463 18.6918 14.2376 18.0755 15.374C17.4692 16.5103 16.5994 17.3988 15.4662 18.0393C14.333 18.6798 13.0109 19 11.5 19C9.98907 19 8.667 18.6798 7.5338 18.0393C6.4006 17.3988 5.52585 16.5103 4.90954 15.374C4.30318 14.2376 4 12.9463 4 11.5C4 10.0537 4.30318 8.7624 4.90954 7.62603C5.52584 6.48967 6.4006 5.60124 7.5338 4.96074C8.667 4.32025 9.98907 4 11.5 4ZM11.5 7.51756C10.7843 7.51756 10.163 7.68285 9.63618 8.01343C9.10934 8.33368 8.70179 8.79339 8.41352 9.39256C8.13519 9.99174 7.99602 10.6942 7.99602 11.5C7.99602 12.3058 8.13519 13.0083 8.41352 13.6074C8.70179 14.2066 9.10934 14.6715 9.63618 15.0021C10.163 15.3223 10.7843 15.4824 11.5 15.4824C12.2157 15.4824 12.837 15.3223 13.3638 15.0021C13.8907 14.6715 14.2932 14.2066 14.5716 13.6074C14.8598 13.0083 15.004 12.3058 15.004 11.5C15.004 10.6942 14.8598 9.99174 14.5716 9.39256C14.2932 8.79339 13.8907 8.33368 13.3638 8.01343C12.837 7.68285 12.2157 7.51756 11.5 7.51756Z" fill="#57816D"/>
<path d="M8.42697 21.7229C13.16 18.1232 17.5934 14.401 22.4591 11" stroke="#F1C40F" stroke-width="4" stroke-linecap="round" stroke-linejoin="round"/>
</svg>
